<?xml version="1.0" encoding="iso-8859-1"?>
<!-- Uploaded to: SVG Repo, www.svgrepo.com, Generator: SVG Repo Mixer Tools -->
<svg fill="#000000" height="800px" width="800px" version="1.1" id="Layer_1" xmlns="http://www.w3.org/2000/svg" xmlns:xlink="http://www.w3.org/1999/xlink" 
	 viewBox="0 0 512.006 512.006" xml:space="preserve">
<g>
	<g>
		<path d="M491.952,398.615L365.696,274.413c11.888-24.973,18.549-52.914,18.549-82.413c0-106.033-85.967-192-192-192
			s-192,85.967-192,192s85.967,192,192,192c29.237,0,56.942-6.547,81.746-18.238l124.404,126.439
			c25.733,26.237,67.983,26.432,93.993,0.422C518.392,466.62,518.187,424.377,491.952,398.615z M42.912,192
			c0-82.469,66.865-149.333,149.333-149.333S341.579,109.531,341.579,192c0,26.697-7.014,51.753-19.289,73.44
			c-0.496,0.657-0.963,1.349-1.393,2.079c-13.039,22.13-31.524,40.553-53.655,53.455c-0.688,0.401-1.34,0.837-1.964,1.297
			c-21.594,12.133-46.503,19.061-73.033,19.061C109.777,341.333,42.912,274.469,42.912,192z M462.219,462.453
			c-9.237,9.237-24.246,9.167-33.386-0.152L311.181,342.725c11.613-9.176,22.135-19.668,31.353-31.247l119.51,117.567
			C471.375,438.208,471.448,453.224,462.219,462.453z"/>
	</g>
</g>
</svg>